{
    "asset": {
        "copyright": "(C)2025 MT66",
        "generator": "maya2glTF main fbbc95e5dc4d",
        "version": "2.0"
    },
    "scenes": [
        {
            "nodes": [
                1,
                0
            ]
        }
    ],
    "scene": 0,
    "nodes": [
        {
            "name": "Object01",
            "mesh": 0,
            "translation": [
                0.0,
                -155.33685302734376,
                0.0
            ]
        },
        {
            "name": "Globe02",
            "mesh": 1,
            "translation": [
                0.0,
                -155.33685302734376,
                0.0
            ]
        }
    ],
    "meshes": [
        {
            "name": "Object01Shape",
            "extras": {
                "targetNames": []
            },
            "primitives": [
                {
                    "attributes": {
                        "NORMAL": 1,
                        "POSITION": 2,
                        "TANGENT": 3,
                        "TEXCOORD_0": 4
                    },
                    "indices": 0,
                    "mode": 4,
                    "material": 0
                }
            ]
        },
        {
            "name": "Globe02Shape",
            "extras": {
                "targetNames": []
            },
            "primitives": [
                {
                    "attributes": {
                        "NORMAL": 6,
                        "POSITION": 7,
                        "TANGENT": 8,
                        "TEXCOORD_0": 9
                    },
                    "indices": 5,
                    "mode": 4,
                    "material": 1
                },
                {
                    "attributes": {
                        "NORMAL": 11,
                        "POSITION": 12,
                        "TANGENT": 13,
                        "TEXCOORD_0": 14
                    },
                    "indices": 10,
                    "mode": 4,
                    "material": 2
                },
                {
                    "attributes": {
                        "NORMAL": 16,
                        "POSITION": 17,
                        "TANGENT": 18,
                        "TEXCOORD_0": 19
                    },
                    "indices": 15,
                    "mode": 4,
                    "material": 3
                }
            ]
        }
    ],
    "materials": [
        {
            "name": "GLSLShader2",
            "pbrMetallicRoughness": {
                "baseColorFactor": [
                    0.5,
                    0.5,
                    0.5,
                    1.0
                ],
                "baseColorTexture": {
                    "index": 0
                },
                "metallicFactor": 0.5,
                "roughnessFactor": 0.5
            },
            "emissiveFactor": [
                0.0,
                0.0,
                0.0
            ]
        },
        {
            "name": "GLSLShader4",
            "pbrMetallicRoughness": {
                "baseColorFactor": [
                    0.5571428537368774,
                    0.5571428537368774,
                    0.5571428537368774,
                    1.0
                ],
                "metallicFactor": 0.5,
                "roughnessFactor": 0.5
            },
            "emissiveFactor": [
                0.0,
                0.0,
                0.0
            ]
        },
        {
            "name": "GLSLShader1",
            "pbrMetallicRoughness": {
                "baseColorFactor": [
                    0.25,
                    0.25,
                    0.25,
                    1.0
                ],
                "metallicFactor": 0.5,
                "roughnessFactor": 0.5
            },
            "emissiveFactor": [
                0.0,
                0.0,
                0.0
            ]
        },
        {
            "name": "GLSLShader3",
            "pbrMetallicRoughness": {
                "baseColorFactor": [
                    0.0,
                    0.15385007858276368,
                    1.0,
                    1.0
                ],
                "metallicFactor": 0.6941176652908325,
                "roughnessFactor": 0.7235293984413147
            },
            "emissiveFactor": [
                0.0,
                0.0,
                0.0
            ]
        }
    ],
    "textures": [
        {
            "sampler": 0,
            "source": 0
        }
    ],
    "images": [
        {
            "uri": "mp.jpg"
        }
    ],
    "samplers": [
        {
            "magFilter": 9728,
            "minFilter": 9728,
            "wrapS": 10497,
            "wrapT": 10497
        }
    ],
    "accessors": [
        {
            "name": "Object01Shape#0/indices",
            "bufferView": 0,
            "byteOffset": 0,
            "componentType": 5123,
            "count": 11904,
            "max": [
                6189
            ],
            "min": [
                0
            ],
            "type": "SCALAR"
        },
        {
            "name": "Object01Shape#0/vertices/NORMAL",
            "bufferView": 1,
            "byteOffset": 0,
            "componentType": 5126,
            "count": 6190,
            "max": [
                0.9999383687973024,
                0.9999860525131226,
                0.9999408721923828
            ],
            "min": [
                -0.9999383687973024,
                -0.9999860525131226,
                -0.9999408721923828
            ],
            "type": "VEC3"
        },
        {
            "name": "Object01Shape#0/vertices/POSITION",
            "bufferView": 1,
            "byteOffset": 74280,
            "componentType": 5126,
            "count": 6190,
            "max": [
                82.6989974975586,
                242.31809997558598,
                80.52429962158203
            ],
            "min": [
                -82.6989974975586,
                76.2477035522461,
                -84.80729675292969
            ],
            "type": "VEC3"
        },
        {
            "name": "Object01Shape#0/vertices/TANGENT",
            "bufferView": 2,
            "byteOffset": 0,
            "componentType": 5126,
            "count": 6190,
            "max": [
                0.9736204147338868,
                0.3711952269077301,
                0.9999406337738036,
                1.0
            ],
            "min": [
                -0.973620355129242,
                -0.3668278753757477,
                -0.9999405741691588,
                1.0
            ],
            "type": "VEC4"
        },
        {
            "name": "Object01Shape#0/vertices/TEXCOORD_0",
            "bufferView": 3,
            "byteOffset": 0,
            "componentType": 5126,
            "count": 6190,
            "max": [
                1.0,
                1.0
            ],
            "min": [
                0.0,
                0.0
            ],
            "type": "VEC2"
        },
        {
            "name": "Globe02Shape#0/indices",
            "bufferView": 0,
            "byteOffset": 23808,
            "componentType": 5123,
            "count": 26160,
            "max": [
                17128
            ],
            "min": [
                0
            ],
            "type": "SCALAR"
        },
        {
            "name": "Globe02Shape#0/vertices/NORMAL",
            "bufferView": 1,
            "byteOffset": 148560,
            "componentType": 5126,
            "count": 17129,
            "max": [
                0.9999942779541016,
                0.9999992847442628,
                1.0
            ],
            "min": [
                -0.999997615814209,
                -0.999998927116394,
                -1.0
            ],
            "type": "VEC3"
        },
        {
            "name": "Globe02Shape#0/vertices/POSITION",
            "bufferView": 1,
            "byteOffset": 354108,
            "componentType": 5126,
            "count": 17129,
            "max": [
                95.16280364990236,
                252.9680938720703,
                0.21729999780654908
            ],
            "min": [
                -34.302101135253909,
                63.750301361083987,
                -4.502600193023682
            ],
            "type": "VEC3"
        },
        {
            "name": "Globe02Shape#0/vertices/TANGENT",
            "bufferView": 2,
            "byteOffset": 99040,
            "componentType": 5126,
            "count": 17129,
            "max": [
                0.9999993443489076,
                0.9999975562095642,
                1.0,
                1.0
            ],
            "min": [
                -0.9999992847442628,
                -0.9999975562095642,
                -1.0,
                -1.0
            ],
            "type": "VEC4"
        },
        {
            "name": "Globe02Shape#0/vertices/TEXCOORD_0",
            "bufferView": 3,
            "byteOffset": 49520,
            "componentType": 5126,
            "count": 17129,
            "max": [
                6.767899990081787,
                -2.0322999954223639
            ],
            "min": [
                3.422600030899048,
                -8.347800254821778
            ],
            "type": "VEC2"
        },
        {
            "name": "Globe02Shape#1/indices",
            "bufferView": 0,
            "byteOffset": 76128,
            "componentType": 5123,
            "count": 17280,
            "max": [
                9286
            ],
            "min": [
                0
            ],
            "type": "SCALAR"
        },
        {
            "name": "Globe02Shape#1/vertices/NORMAL",
            "bufferView": 1,
            "byteOffset": 559656,
            "componentType": 5126,
            "count": 9287,
            "max": [
                0.9997857213020324,
                0.999956488609314,
                0.9999408721923828
            ],
            "min": [
                -0.9997857213020324,
                -0.999956488609314,
                -0.9999408721923828
            ],
            "type": "VEC3"
        },
        {
            "name": "Globe02Shape#1/vertices/POSITION",
            "bufferView": 1,
            "byteOffset": 671100,
            "componentType": 5126,
            "count": 9287,
            "max": [
                39.58509826660156,
                242.9822998046875,
                14.0625
            ],
            "min": [
                -39.58509826660156,
                75.58350372314453,
                -18.34779930114746
            ],
            "type": "VEC3"
        },
        {
            "name": "Globe02Shape#1/vertices/TANGENT",
            "bufferView": 2,
            "byteOffset": 373104,
            "componentType": 5126,
            "count": 9287,
            "max": [
                0.96311616897583,
                0.2695079445838928,
                0.9999856352806092,
                1.0
            ],
            "min": [
                -0.877271831035614,
                -0.3157259523868561,
                -0.9999852776527404,
                -1.0
            ],
            "type": "VEC4"
        },
        {
            "name": "Globe02Shape#1/vertices/TEXCOORD_0",
            "bufferView": 3,
            "byteOffset": 186552,
            "componentType": 5126,
            "count": 9287,
            "max": [
                4.172200202941895,
                -2.4261999130249025
            ],
            "min": [
                3.1064999103546144,
                -7.953900337219238
            ],
            "type": "VEC2"
        },
        {
            "name": "Globe02Shape#2/indices",
            "bufferView": 0,
            "byteOffset": 110688,
            "componentType": 5123,
            "count": 15336,
            "max": [
                10217
            ],
            "min": [
                0
            ],
            "type": "SCALAR"
        },
        {
            "name": "Globe02Shape#2/vertices/NORMAL",
            "bufferView": 1,
            "byteOffset": 782544,
            "componentType": 5126,
            "count": 10218,
            "max": [
                1.0,
                1.0,
                1.0
            ],
            "min": [
                -1.0,
                -1.0,
                -1.0
            ],
            "type": "VEC3"
        },
        {
            "name": "Globe02Shape#2/vertices/POSITION",
            "bufferView": 1,
            "byteOffset": 905160,
            "componentType": 5126,
            "count": 10218,
            "max": [
                54.180301666259769,
                63.7848014831543,
                52.37689971923828
            ],
            "min": [
                -54.87139892578125,
                0.0,
                -56.66210174560547
            ],
            "type": "VEC3"
        },
        {
            "name": "Globe02Shape#2/vertices/TANGENT",
            "bufferView": 2,
            "byteOffset": 521696,
            "componentType": 5126,
            "count": 10218,
            "max": [
                1.0,
                0.2715134918689728,
                1.0,
                1.0
            ],
            "min": [
                -0.9848078489303588,
                -0.6162406206130981,
                -1.0,
                -1.0
            ],
            "type": "VEC4"
        },
        {
            "name": "Globe02Shape#2/vertices/TEXCOORD_0",
            "bufferView": 3,
            "byteOffset": 260848,
            "componentType": 5126,
            "count": 10218,
            "max": [
                6.867000102996826,
                0.33980000019073489
            ],
            "min": [
                3.305299997329712,
                -2.243499994277954
            ],
            "type": "VEC2"
        }
    ],
    "bufferViews": [
        {
            "name": "untitled/data/indices-2",
            "buffer": 0,
            "byteOffset": 2055552,
            "byteLength": 141360,
            "target": 34963
        },
        {
            "name": "untitled/data/vertices-12",
            "buffer": 0,
            "byteOffset": 685184,
            "byteLength": 1027776,
            "byteStride": 12,
            "target": 34962
        },
        {
            "name": "untitled/data/vertices-16",
            "buffer": 0,
            "byteOffset": 0,
            "byteLength": 685184,
            "byteStride": 16,
            "target": 34962
        },
        {
            "name": "untitled/data/vertices-8",
            "buffer": 0,
            "byteOffset": 1712960,
            "byteLength": 342592,
            "byteStride": 8,
            "target": 34962
        }
    ],
    "buffers": [
        {
            "name": "untitled/data",
            "byteLength": 2196912,
            "uri": "untitled0.bin"
        }
    ]
}
