{
    "asset": {
        "copyright": "(C)2025 MT66",
        "generator": "maya2glTF main fbbc95e5dc4d",
        "version": "2.0"
    },
    "scenes": [
        {
            "nodes": [
                0
            ]
        }
    ],
    "scene": 0,
    "nodes": [
        {
            "name": "group1",
            "children": [
                1
            ],
            "translation": [
                0.0,
                0.004889274947345257,
                0.0
            ],
            "scale": [
                2.0,
                2.0,
                2.0
            ]
        },
        {
            "name": "group1:PIV",
            "children": [
                4,
                2
            ],
            "translation": [
                0.0,
                -0.004889274947345257,
                0.0
            ]
        },
        {
            "name": "Object01",
            "children": [
                3
            ],
            "translation": [
                0.0,
                21.13963317871094,
                -0.2837780117988587
            ]
        },
        {
            "name": "Object01:PIV",
            "mesh": 0,
            "translation": [
                0.0,
                -21.13963317871094,
                0.2837780117988587
            ]
        },
        {
            "name": "Globe02",
            "children": [
                5
            ],
            "translation": [
                0.0,
                0.03245805576443672,
                0.0
            ]
        },
        {
            "name": "Globe02:PIV",
            "mesh": 1,
            "translation": [
                0.0,
                -0.03245805576443672,
                0.0
            ]
        }
    ],
    "meshes": [
        {
            "name": "Object01Shape",
            "extras": {
                "targetNames": []
            },
            "primitives": [
                {
                    "attributes": {
                        "NORMAL": 1,
                        "POSITION": 2,
                        "TANGENT": 3,
                        "TEXCOORD_0": 4
                    },
                    "indices": 0,
                    "mode": 4,
                    "material": 0
                }
            ]
        },
        {
            "name": "Globe02Shape",
            "extras": {
                "targetNames": []
            },
            "primitives": [
                {
                    "attributes": {
                        "NORMAL": 6,
                        "POSITION": 7,
                        "TANGENT": 8,
                        "TEXCOORD_0": 9
                    },
                    "indices": 5,
                    "mode": 4,
                    "material": 1
                },
                {
                    "attributes": {
                        "NORMAL": 11,
                        "POSITION": 12,
                        "TANGENT": 13,
                        "TEXCOORD_0": 14
                    },
                    "indices": 10,
                    "mode": 4,
                    "material": 2
                },
                {
                    "attributes": {
                        "NORMAL": 16,
                        "POSITION": 17,
                        "TANGENT": 18,
                        "TEXCOORD_0": 19
                    },
                    "indices": 15,
                    "mode": 4,
                    "material": 3
                }
            ]
        }
    ],
    "materials": [
        {
            "name": "GLSLShader2",
            "pbrMetallicRoughness": {
                "baseColorFactor": [
                    0.5,
                    0.5,
                    0.5,
                    1.0
                ],
                "baseColorTexture": {
                    "index": 0
                },
                "metallicFactor": 0.5,
                "roughnessFactor": 0.5
            },
            "emissiveFactor": [
                0.0,
                0.0,
                0.0
            ]
        },
        {
            "name": "GLSLShader4",
            "pbrMetallicRoughness": {
                "baseColorFactor": [
                    0.5571428537368774,
                    0.5571428537368774,
                    0.5571428537368774,
                    1.0
                ],
                "metallicFactor": 0.5,
                "roughnessFactor": 0.5
            },
            "emissiveFactor": [
                0.0,
                0.0,
                0.0
            ]
        },
        {
            "name": "GLSLShader1",
            "pbrMetallicRoughness": {
                "baseColorFactor": [
                    0.25,
                    0.25,
                    0.25,
                    1.0
                ],
                "metallicFactor": 0.5,
                "roughnessFactor": 0.5
            },
            "emissiveFactor": [
                0.0,
                0.0,
                0.0
            ]
        },
        {
            "name": "GLSLShader3",
            "pbrMetallicRoughness": {
                "baseColorFactor": [
                    0.0,
                    0.15385007858276368,
                    1.0,
                    1.0
                ],
                "metallicFactor": 0.6941176652908325,
                "roughnessFactor": 0.7235293984413147
            },
            "emissiveFactor": [
                0.0,
                0.0,
                0.0
            ]
        }
    ],
    "textures": [
        {
            "sampler": 0,
            "source": 0
        }
    ],
    "images": [
        {
            "uri": "mp.jpg"
        }
    ],
    "samplers": [
        {
            "magFilter": 9728,
            "minFilter": 9728,
            "wrapS": 10497,
            "wrapT": 10497
        }
    ],
    "accessors": [
        {
            "name": "Object01Shape#0/indices",
            "bufferView": 0,
            "byteOffset": 0,
            "componentType": 5123,
            "count": 11904,
            "max": [
                6194
            ],
            "min": [
                0
            ],
            "type": "SCALAR"
        },
        {
            "name": "Object01Shape#0/vertices/NORMAL",
            "bufferView": 1,
            "byteOffset": 0,
            "componentType": 5126,
            "count": 6195,
            "max": [
                0.9999383091926576,
                0.9999860525131226,
                0.9999408721923828
            ],
            "min": [
                -0.9999383091926576,
                -0.9999860525131226,
                -0.9999408721923828
            ],
            "type": "VEC3"
        },
        {
            "name": "Object01Shape#0/vertices/POSITION",
            "bufferView": 1,
            "byteOffset": 74340,
            "componentType": 5126,
            "count": 6195,
            "max": [
                10.958755493164065,
                32.1429443359375,
                10.670578002929688
            ],
            "min": [
                -10.958755493164065,
                10.136329650878908,
                -11.238136291503908
            ],
            "type": "VEC3"
        },
        {
            "name": "Object01Shape#0/vertices/TANGENT",
            "bufferView": 2,
            "byteOffset": 0,
            "componentType": 5126,
            "count": 6195,
            "max": [
                0.9736204147338868,
                0.37119370698928835,
                0.9999407529830932,
                1.0
            ],
            "min": [
                -0.9736202359199524,
                -0.36682674288749697,
                -0.9999405741691588,
                1.0
            ],
            "type": "VEC4"
        },
        {
            "name": "Object01Shape#0/vertices/TEXCOORD_0",
            "bufferView": 3,
            "byteOffset": 0,
            "componentType": 5126,
            "count": 6195,
            "max": [
                1.0,
                1.0
            ],
            "min": [
                0.0,
                0.0
            ],
            "type": "VEC2"
        },
        {
            "name": "Globe02Shape#0/indices",
            "bufferView": 0,
            "byteOffset": 23808,
            "componentType": 5123,
            "count": 26160,
            "max": [
                17127
            ],
            "min": [
                0
            ],
            "type": "SCALAR"
        },
        {
            "name": "Globe02Shape#0/vertices/NORMAL",
            "bufferView": 1,
            "byteOffset": 148680,
            "componentType": 5126,
            "count": 17128,
            "max": [
                0.9999942183494568,
                0.9999992847442628,
                1.0
            ],
            "min": [
                -0.999997615814209,
                -0.9999988675117492,
                -1.0
            ],
            "type": "VEC3"
        },
        {
            "name": "Globe02Shape#0/vertices/POSITION",
            "bufferView": 1,
            "byteOffset": 354216,
            "componentType": 5126,
            "count": 17128,
            "max": [
                12.610382080078124,
                33.55421447753906,
                0.028795242309570314
            ],
            "min": [
                -4.545499801635742,
                8.48025131225586,
                -0.5966565608978272
            ],
            "type": "VEC3"
        },
        {
            "name": "Globe02Shape#0/vertices/TANGENT",
            "bufferView": 2,
            "byteOffset": 99120,
            "componentType": 5126,
            "count": 17128,
            "max": [
                0.9999993443489076,
                0.999997615814209,
                1.0,
                1.0
            ],
            "min": [
                -1.0,
                -0.999997615814209,
                -1.0,
                -1.0
            ],
            "type": "VEC4"
        },
        {
            "name": "Globe02Shape#0/vertices/TEXCOORD_0",
            "bufferView": 3,
            "byteOffset": 49560,
            "componentType": 5126,
            "count": 17128,
            "max": [
                6.767899990081787,
                -2.0322999954223639
            ],
            "min": [
                3.422600030899048,
                -8.347800254821778
            ],
            "type": "VEC2"
        },
        {
            "name": "Globe02Shape#1/indices",
            "bufferView": 0,
            "byteOffset": 76128,
            "componentType": 5123,
            "count": 17280,
            "max": [
                9279
            ],
            "min": [
                0
            ],
            "type": "SCALAR"
        },
        {
            "name": "Globe02Shape#1/vertices/NORMAL",
            "bufferView": 1,
            "byteOffset": 559752,
            "componentType": 5126,
            "count": 9280,
            "max": [
                0.9997857213020324,
                0.9999565482139589,
                0.9999408721923828
            ],
            "min": [
                -0.9997857213020324,
                -0.9999565482139589,
                -0.9999408721923828
            ],
            "type": "VEC3"
        },
        {
            "name": "Globe02Shape#1/vertices/POSITION",
            "bufferView": 1,
            "byteOffset": 671112,
            "componentType": 5126,
            "count": 9280,
            "max": [
                5.245571136474609,
                32.23095703125,
                1.8634748458862305
            ],
            "min": [
                -5.245571136474609,
                10.048309326171877,
                -2.43133544921875
            ],
            "type": "VEC3"
        },
        {
            "name": "Globe02Shape#1/vertices/TANGENT",
            "bufferView": 2,
            "byteOffset": 373168,
            "componentType": 5126,
            "count": 9280,
            "max": [
                0.9631143808364868,
                0.26950839161872866,
                0.9999855160713196,
                1.0
            ],
            "min": [
                -0.8772680163383484,
                -0.31574004888534548,
                -0.99998539686203,
                -1.0
            ],
            "type": "VEC4"
        },
        {
            "name": "Globe02Shape#1/vertices/TEXCOORD_0",
            "bufferView": 3,
            "byteOffset": 186584,
            "componentType": 5126,
            "count": 9280,
            "max": [
                4.172200202941895,
                -2.4261999130249025
            ],
            "min": [
                3.1064999103546144,
                -7.953900337219238
            ],
            "type": "VEC2"
        },
        {
            "name": "Globe02Shape#2/indices",
            "bufferView": 0,
            "byteOffset": 110688,
            "componentType": 5123,
            "count": 15336,
            "max": [
                10217
            ],
            "min": [
                0
            ],
            "type": "SCALAR"
        },
        {
            "name": "Globe02Shape#2/vertices/NORMAL",
            "bufferView": 1,
            "byteOffset": 782472,
            "componentType": 5126,
            "count": 10218,
            "max": [
                1.0,
                1.0,
                1.0
            ],
            "min": [
                -1.0,
                -1.0,
                -1.0
            ],
            "type": "VEC3"
        },
        {
            "name": "Globe02Shape#2/vertices/POSITION",
            "bufferView": 1,
            "byteOffset": 905088,
            "componentType": 5126,
            "count": 10218,
            "max": [
                7.179634094238281,
                8.484821319580079,
                6.9406585693359379
            ],
            "min": [
                -7.271213531494141,
                0.03245805203914642,
                -7.508506774902344
            ],
            "type": "VEC3"
        },
        {
            "name": "Globe02Shape#2/vertices/TANGENT",
            "bufferView": 2,
            "byteOffset": 521648,
            "componentType": 5126,
            "count": 10218,
            "max": [
                1.0,
                0.2715134620666504,
                1.0,
                1.0
            ],
            "min": [
                -0.9848078489303588,
                -0.6162406206130981,
                -1.0,
                -1.0
            ],
            "type": "VEC4"
        },
        {
            "name": "Globe02Shape#2/vertices/TEXCOORD_0",
            "bufferView": 3,
            "byteOffset": 260824,
            "componentType": 5126,
            "count": 10218,
            "max": [
                6.867000102996826,
                0.33980000019073489
            ],
            "min": [
                3.305299997329712,
                -2.243499994277954
            ],
            "type": "VEC2"
        }
    ],
    "bufferViews": [
        {
            "name": "untitled/data/indices-2",
            "buffer": 0,
            "byteOffset": 2055408,
            "byteLength": 141360,
            "target": 34963
        },
        {
            "name": "untitled/data/vertices-12",
            "buffer": 0,
            "byteOffset": 685136,
            "byteLength": 1027704,
            "byteStride": 12,
            "target": 34962
        },
        {
            "name": "untitled/data/vertices-16",
            "buffer": 0,
            "byteOffset": 0,
            "byteLength": 685136,
            "byteStride": 16,
            "target": 34962
        },
        {
            "name": "untitled/data/vertices-8",
            "buffer": 0,
            "byteOffset": 1712840,
            "byteLength": 342568,
            "byteStride": 8,
            "target": 34962
        }
    ],
    "buffers": [
        {
            "name": "untitled/data",
            "byteLength": 2196768,
            "uri": "untitled0.bin"
        }
    ]
}
